<svg xmlns="http://www.w3.org/2000/svg" viewBox="0 0 500 500"><defs><style>.cls-1{fill:#d7694b;}.cls-2{fill:#de7f66;}.cls-3{fill:#fedf2f;}.cls-4{fill:#fee97e;}.cls-5{fill:#fac600;}.cls-6{fill:#60b7fe;}.cls-7{fill:#22a6fe;}.cls-8{fill:#8ac9fe;}.cls-9{fill:none;}</style></defs><g id="Livello_2" data-name="Livello 2"><g id="Livello_1-2" data-name="Livello 1"><path class="cls-1" d="M49.34,458.31c2.58-7.79,7.89-13.92,12.71-20.28,10.39-13.7,23.06-25.14,36.45-35.88,13.08-10.5,25.77-21.49,38.64-32.24,8.73-7.3,17.75-14.27,26.17-21.91,11-10,19.42-22.19,26.12-35.46,9.83-19.46,21.56-37.37,37.8-52.32,11.3-10.39,21.65-21.83,32.26-33,4.95-5.21,6.47-11.72,5.24-18.72-1.33-7.6-2.38-15.19-1.39-22.9.27-2.13.42-4.43,2.61-5.73h0q-.88-5.19-1.78-10.36l-.14-.12c-5.46-4.55-11.46-6.18-18.12-2.87-6.87,3.4-9.31,9.34-8.93,16.71a102.75,102.75,0,0,0,2.17,16.07c1.83,8.68.1,16.45-6.4,23-4.61,4.65-9,9.47-13.45,14.31-10.12,11.11-20.63,21.91-30.36,33.36-10.14,11.93-16.34,26.31-23.33,40.15A126.09,126.09,0,0,1,136.5,348.4c-20.26,17.83-40.43,35.78-60.93,53.34-20.31,17.4-37.09,37.41-48.48,61.77A11.84,11.84,0,0,0,26,471.07a5,5,0,0,0,8.13,2.72A162.78,162.78,0,0,0,49.34,458.31Z"/><path class="cls-2" d="M266.87,182.35c-.27-.82-.61-1.62-.92-2.42h0c-2.19,1.3-2.34,3.6-2.61,5.73-1,7.71.06,15.3,1.39,22.9,1.23,7-.29,13.51-5.24,18.72-10.61,11.14-21,22.58-32.26,33-16.24,14.94-28,32.86-37.8,52.32-6.7,13.26-15.08,25.43-26.12,35.45-8.42,7.64-17.44,14.62-26.17,21.91-12.87,10.76-25.56,21.75-38.64,32.24-13.39,10.75-26.06,22.18-36.45,35.89-4.82,6.35-10.13,12.48-12.71,20.27,4.09-3.55,8.07-7.24,12.28-10.64,34.5-27.76,68.84-55.74,103.67-83.08,16.83-13.21,31.56-27.92,42.34-46.51a90.78,90.78,0,0,1,19.6-23.59c14.84-12.67,30.41-24.42,45.76-36.45,5.54-4.35,12-5.25,18.76-3.67a146,146,0,0,0,19.51,3c12.31,1.16,22.56-10.55,16.3-23.49Q281.51,226.63,266.87,182.35Z"/><path class="cls-3" d="M292.36,306.74c-3.8.19-4.61-1.21-4.55-4.72.08-4.39-2.81-6.95-6.83-6.91s-6.74,2.57-6.71,7.07c0,3.73-1.26,4.67-4.79,4.56a6.52,6.52,0,0,0-6.85,6.5c-.05,3.74,2.83,6.78,7.11,6.71,3.34-.06,4.54.8,4.52,4.35,0,4.7,2.9,7.32,7,7.25,3.9-.08,6.65-2.73,6.54-7.21-.08-3.46.95-4.49,4.41-4.39,4.38.12,7.14-2.74,7.18-6.58A6.39,6.39,0,0,0,292.36,306.74Z"/><path class="cls-4" d="M461,180.88c-3.95.2-5-1.11-4.86-4.93.18-4.4-2.26-6.6-6.35-6.67-4.35-.07-6.94,2.15-6.75,6.72.17,3.88-1,5.06-4.91,4.88-4.38-.21-6.6,2.25-6.69,6.33s2.57,7,6.82,6.76,4.91,1.35,4.77,5c-.15,4,2.78,6.59,6.58,6.58s6.71-2.59,6.53-6.62c-.17-3.76.8-5.19,4.81-5,4.25.24,6.86-2.78,6.77-6.81S465.44,180.65,461,180.88Z"/><path class="cls-5" d="M447.61,113.18c-5.28-3.69-5.18-6.85.37-10.13a34.86,34.86,0,0,0,10.83-9.35c-1.54-2.47-3-5-4.64-7.39-2.64-3.91-6.82-4-9.11.12A44.11,44.11,0,0,1,428,103.6c-4.3,2.45-4.36,6.9-.09,9.33A44.65,44.65,0,0,1,445,130.06c2.3,4,6.59,3.92,9.22.08,1.65-2.4,3.09-4.93,4.62-7.4C456,118.51,451.65,116,447.61,113.18Z"/><path class="cls-3" d="M470.25,103.13a46,46,0,0,1-11.44-9.43h0A34.86,34.86,0,0,1,448,103.05c-5.55,3.28-5.65,6.44-.37,10.13,4,2.83,8.38,5.33,11.24,9.56,3.58-3.43,7.11-6.89,11.51-9.38C475.62,110.4,475.54,106.23,470.25,103.13Z"/><path class="cls-3" d="M375.75,50.3c-4.48-3.13-4.4-5.81.32-8.6a29.25,29.25,0,0,0,9.18-7.93c-1.31-2.09-2.56-4.22-3.93-6.26-2.24-3.33-5.79-3.39-7.74.09a37.37,37.37,0,0,1-14.46,14.57c-3.65,2.09-3.7,5.86-.08,7.92a37.93,37.93,0,0,1,14.51,14.53c1.95,3.42,5.58,3.34,7.82.07,1.4-2,2.62-4.18,3.92-6.28C382.86,54.82,379.18,52.7,375.75,50.3Z"/><path class="cls-4" d="M395,41.77a38.77,38.77,0,0,1-9.71-8h0a29.25,29.25,0,0,1-9.18,7.93c-4.72,2.79-4.8,5.47-.32,8.6,3.43,2.4,7.11,4.52,9.54,8.11,3-2.91,6-5.85,9.77-7.95C399.52,48,399.45,44.4,395,41.77Z"/><circle class="cls-6" cx="335.98" cy="162.71" r="72.18"/><path class="cls-7" d="M306.09,162.71a72.21,72.21,0,0,1,51-69,72.19,72.19,0,1,0,0,138A72.21,72.21,0,0,1,306.09,162.71Z"/><path class="cls-8" d="M376.39,193.49a5.34,5.34,0,0,1-2.73-.76,5.29,5.29,0,0,1-1.79-7.26,44.08,44.08,0,0,0-8-55.25,5.29,5.29,0,0,1,7.15-7.79,54.67,54.67,0,0,1,9.86,68.51A5.29,5.29,0,0,1,376.39,193.49Z"/><rect class="cls-9" width="500" height="500"/></g></g></svg>