<svg xmlns="http://www.w3.org/2000/svg" viewBox="0 0 500 500"><defs><style>.cls-1{fill:none;}.cls-2{fill:#ce8afb;}.cls-3{fill:#9866cb;}.cls-4{fill:#f8d266;}.cls-5{fill:#9966cb;}.cls-6{fill:#f8c841;}.cls-7{fill:#96c;}.cls-8{fill:#9b68cd;}</style></defs><g id="Livello_2" data-name="Livello 2"><g id="Livello_1-2" data-name="Livello 1"><path class="cls-1" d="M145.5,335.71c4.24,10.92,10.72,20.35,18.49,28.93a100.61,100.61,0,0,0,17.47,15.18c20.93,14.47,27.13,35.44,25.47,59.66,0,.09,0,.26-.06.47a1.09,1.09,0,0,0,.18-.47c1.65-24.22-4.54-45.19-25.48-59.66a100.54,100.54,0,0,1-17.46-15.18c-7.78-8.58-14.26-18-18.5-28.93a46.2,46.2,0,0,1-2.49-26.54l-.11,0A46.13,46.13,0,0,0,145.5,335.71Z"/><path class="cls-1" d="M325.56,182.84C341,187.61,346,200.9,337.64,215.43c-6.89,12-16.94,20.53-29.28,26.74C295.49,248.64,281.93,253,268,256.55c-.37.09-.92.26-1.63.47.57-.09,1.15-.32,1.75-.47,13.88-3.55,27.44-7.91,40.32-14.38,12.33-6.21,22.39-14.69,29.28-26.74,8.3-14.53,3.34-27.82-12.08-32.59a111.28,111.28,0,0,0-32.29-4.77h-.12A111.23,111.23,0,0,1,325.56,182.84Z"/><path class="cls-1" d="M230.81,288.71c4.57,1,9.16,1.81,13.73,2.77,4.75,1,7.26,3.58,7.32,7.42.07,4-2.12,6.23-7.17,7.42-7,1.64-14.18,2.27-20.89,4.83-16.23,6.19-24.42,18.71-27.23,35.33-.59,3.45-1.19,6.91-2,10.32-.89,3.86-2.82,6.69-7.33,6.69h0c4.55,0,6.5-2.81,7.39-6.69.78-3.41,1.39-6.87,2-10.32,2.82-16.62,11-29.14,27.24-35.33,6.71-2.56,13.93-3.19,20.88-4.83,5-1.19,7.24-3.42,7.18-7.42-.07-3.84-2.58-6.43-7.32-7.42-4.57-1-9.16-1.81-13.73-2.77-12-2.52-21.59-8.62-27.9-19.38l1.83-.4-2,.4C209.22,280.09,218.78,286.19,230.81,288.71Z"/><path class="cls-1" d="M425,213.24c5.31,8.41,5.38,32.85-6.12,48.29s-27.07,23.69-43,23.94c16-.21,31.62-8.43,43.16-23.94s11.43-40.16,6-48.43Z"/><path class="cls-2" d="M473.59,217.74c-1.4-21.39-9.43-39.45-24.8-54.39-12.85-12.49-28.25-20.52-44.85-26.61-1.14,4.94-2.26,9.89-3.41,14.82-1.09,4.68-3.28,7-6.84,7.07a6.28,6.28,0,0,1-.75,0c-4.36-.24-6.3-3.13-7.17-7-1.51-6.81-2.4-13.77-4.67-20.41a12.21,12.21,0,0,0-.79-1.52h0v0c-25.7-5.64-51.78-7.83-78-8.64-23.12-.71-46.14,1.26-69.18,2.74-9.61.62-19.21,1.33-28.83,1.87-15.34.86-30.65,1.62-45.48-3.68l-.72-.29.6.29A45.08,45.08,0,0,1,145.76,120c-11.28-3.41-21.16-9-27.35-19.59-4.19-7.19-6-15-6.35-24.69l.12.21V75.7c8.66,14.7,19.82,24,36,25.93C152.27,85.6,163,75,177,67.56c22.57-12,47.16-16.61,72.34-18.7,8.77-.73,17.56-1.29,27.33-2a220.54,220.54,0,0,0-21.06-7.2A343.94,343.94,0,0,0,174,25.27,213.4,213.4,0,0,0,134.21,27a172.61,172.61,0,0,0-25.56,5.21c-.48,1.08-3.16,2.42-3.8,2.94A138.46,138.46,0,0,0,88.42,50.41,74.42,74.42,0,0,0,77.06,67.32c-8.4,17.47-7.81,35-.45,52.5C85,139.68,99.28,154.59,116.51,167c15,10.83,31.3,18.55,49.55,22.12,5.44,1.06,11,.56,16.37,1.87h0c7.68-1.29,15.38-2.51,23-3.89,3.31-.6,6.69-.64,10-1.1l-.39,0a48.44,48.44,0,0,1,7.83-2.47,62.92,62.92,0,0,1,7.17-1c12.33-1,24.55-3,36.92-3.86,7.68-.55,15.34-.68,23-.66h3.39a111.28,111.28,0,0,1,32.29,4.77c15.42,4.77,20.38,18.06,12.08,32.59-6.89,12-16.95,20.53-29.28,26.74C295.6,248.64,282,253,268.16,256.55c-.6.15-1.18.38-1.75.47a46.23,46.23,0,0,1-7.62,1.54,118.44,118.44,0,0,1-20.08,3.93h0l-.55.06c-7.43,1.1-12.49,1.86-18.69,3.31-4.84,1.13-9.73,2.07-14.61,3.07l-1.83.4c6.31,10.76,15.87,16.86,27.9,19.38,4.57,1,9.16,1.81,13.73,2.77,4.74,1,7.25,3.58,7.32,7.42.06,4-2.13,6.23-7.18,7.42-7,1.64-14.17,2.27-20.88,4.83-16.23,6.19-24.42,18.71-27.24,35.33-.58,3.45-1.19,6.91-2,10.32-.89,3.88-2.84,6.73-7.39,6.69h-.11c-4.5,0-6.48-2.74-7.36-6.7-1.57-7.12-2.21-14.51-4.88-21.32-5.71-14.58-16.43-23.36-31.85-26.3a46.2,46.2,0,0,0,2.49,26.54c4.24,10.92,10.72,20.35,18.5,28.93a100.54,100.54,0,0,0,17.46,15.18c20.94,14.47,27.13,35.44,25.48,59.66a1.09,1.09,0,0,1-.18.47c-.08.57-.24,1.48-.36,2.14A86.06,86.06,0,0,1,201,475h1.76c9.72-3.91,19.73-7.12,28.94-12.24a85.5,85.5,0,0,0,22.77-17.61c13.87-15.62,17.29-33.62,11.15-53.49-3.57-11.57-5.4-23.28-3.26-35.37-9.57,2.87-17.35,8.73-24.83,15-2,1.67-3.69,3.7-6.76,5a.14.14,0,0,1,0-.07l-.14.07c3.11-9,8.66-15.59,15.24-21.32a96.27,96.27,0,0,1,26.66-16.42,7.24,7.24,0,0,1,3-.63,4.89,4.89,0,0,1,.54,0h0c13-7.11,27.18-9.46,41.62-10.5,15.16-1.1,30.37-1,45.57-1.09A132.3,132.3,0,0,0,393.62,323c27.06-6.6,49.18-20.53,64.53-44.08C470.23,260.38,475.05,239.9,473.59,217.74ZM419,261.53c-11.54,15.51-27.15,23.73-43.16,23.94a48.8,48.8,0,0,1-16-2.43c37.53-9,58.39-33.16,65.05-69.94l.09.14,0-.14C430.44,221.37,430.57,246,419,261.53Z"/><path class="cls-3" d="M206.93,439.48c1.66-24.22-4.54-45.19-25.47-59.66A100.61,100.61,0,0,1,164,364.64c-7.77-8.58-14.25-18-18.49-28.93A46.13,46.13,0,0,1,143,309.14l-13.67-2.87c-4-.84-6.68-2.85-6.69-7.32s2.92-6.47,6.75-7.33c6.67-1.5,13.5-2.33,20-4.53,12-4.06,20.51-11.87,25.08-23.79h0c-9.24-.39-18.4.63-27.55,1.71-17.75,2.11-34.78,6.5-49.69,16.83-16.34,11.31-26.48,26.73-26.89,46.83S78.82,364.43,96,375.12c11.52,7.15,24.34,9.77,37.64,10.05,10.13.21,20.11,1.06,29.89,3.79,25.27,7.05,41.68,26.87,42.78,51.66l.08,1.95c0-.14.06-.3.1-.48.12-.66.28-1.57.36-2.14C206.9,439.74,206.93,439.57,206.93,439.48Z"/><path class="cls-3" d="M104.85,35.16c.64-.52,3.32-1.86,3.8-2.94l0,0a148,148,0,0,0-22.8,8C61.66,51,43.31,67.81,32.66,92.3c-14.27,32.84-4.79,66.92,25.82,85.41,19.15,11.58,40.32,15.85,62.26,16.93A285.37,285.37,0,0,0,182.31,191h0c-5.37-1.31-10.93-.81-16.37-1.87-18.24-3.57-34.55-11.29-49.54-22.12-17.23-12.44-31.55-27.35-39.91-47.21-7.36-17.5-7.95-35,.45-52.5A72.62,72.62,0,0,1,88.42,50.41,138.46,138.46,0,0,1,104.85,35.16Z"/><path class="cls-4" d="M380.31,129.65a12.21,12.21,0,0,1,.79,1.52c2.27,6.64,3.16,13.6,4.67,20.41.87,3.91,2.81,6.8,7.17,7a6.28,6.28,0,0,0,.75,0c3.5-.1,5.64-2.44,6.73-7.07,1.15-4.93,2.27-9.88,3.4-14.82,3.21-16.36,13.21-26.66,28.84-31.51,6.38-2,13.07-2.94,19.61-4.43,3.91-.89,5.51-3.55,5.31-7.43s-2.45-5.84-5.9-6.64c-4.4-1-8.85-1.85-13.28-2.72-18.43-3.63-30.34-14.2-34.73-32.7-1.21-5.11-2.23-10.26-3.28-15.4-.8-3.89-2.85-6.35-7.05-6.48s-6.47,2.3-7.37,6.11-1.64,7.7-2.34,11.57c-3.51,19.29-14.21,32-33.66,36.51-4.68,1.1-9.41,2-14.14,2.9-4.23.76-7.08,2.87-7.4,7.33-.28,3.81,2.69,6.64,7.64,7.63,4.72,1,9.49,1.66,14.16,2.81,14.17,3.47,24.86,11.18,30.07,25.34v0Z"/><path class="cls-4" d="M149.39,287.09c-6.49,2.2-13.32,3-20,4.53-3.83.86-6.75,2.82-6.75,7.33s2.71,6.48,6.69,7.32L143,309.14l.11,0c15.42,2.94,26.14,11.72,31.85,26.3,2.67,6.81,3.31,14.2,4.88,21.32.88,4,2.86,6.67,7.36,6.7h.06c4.51,0,6.44-2.83,7.33-6.69.78-3.41,1.38-6.87,2-10.32,2.81-16.62,11-29.14,27.23-35.33,6.71-2.56,13.93-3.19,20.89-4.83,5.05-1.19,7.24-3.42,7.17-7.42-.06-3.84-2.57-6.43-7.32-7.42-4.57-1-9.16-1.81-13.73-2.77-12-2.52-21.59-8.62-27.9-19.38a13.75,13.75,0,0,1-2.83-6h0c-3.25-6.79-3.7-14.29-5.34-21.48-1.12-4.89-3.8-7.66-7.68-7.55-3.71.11-6.22,2.84-7.29,7.45-1.67,7.21-2.32,14.68-5.3,21.58h0C169.9,275.22,161.37,283,149.39,287.09Z"/><path class="cls-3" d="M268,256.55c13.89-3.55,27.45-7.91,40.32-14.38,12.34-6.21,22.39-14.69,29.28-26.74,8.31-14.53,3.34-27.82-12.08-32.59a111.23,111.23,0,0,0-32.29-4.77H290c-7.66,0-15.32.11-23,.66-12.37.89-24.59,2.87-36.92,3.86a62.92,62.92,0,0,0-7.17,1,48.44,48.44,0,0,0-7.83,2.47l.39,0c1.93-.2,10.43-1.08,12.77-1.28,3.1-.27,6-.45,8.75-.43h0c10.79.42,21.58.91,31.82,4.88,9.7,3.76,17.49,9.57,19.86,20.36,3.47,15.86-4,39.39-24.32,46.9l-5.71,2.12.15,0a46.23,46.23,0,0,0,7.62-1.54C267.12,256.81,267.67,256.64,268,256.55Z"/><path class="cls-5" d="M118.41,100.39c6.19,10.6,16.07,16.18,27.35,19.59a45.08,45.08,0,0,0,12.91,1.94l-.6-.29c-5.17-2.46-9.12-6-9.85-12.12a73.87,73.87,0,0,1-.13-7.88h0C132,99.7,120.83,90.49,112.18,75.91l-.12-.21C112.38,85.39,114.22,93.2,118.41,100.39Z"/><path class="cls-6" d="M368.76,369.43c-4,.39-5.87,3-6.12,6.72-.21,3.05,0,6.12,0,9.18h0c0,2.77-.08,5.54,0,8.31.15,4.37,2.68,7.25,6.42,7.48a6.74,6.74,0,0,0,7.14-6.28,84,84,0,0,0-.12-19.6C375.44,371,372.75,369.05,368.76,369.43Z"/><path class="cls-6" d="M403.39,403c-3.05-.19-6.12,0-9.18,0v0c-3.21,0-6.42-.17-9.62.05-3.64.24-5.93,2.32-6.27,6.05s1.21,6.5,4.93,7.11a70,70,0,0,0,21.29.08c3.66-.52,5.59-3.26,5.37-6.87C409.68,405.52,407.27,403.24,403.39,403Z"/><path class="cls-6" d="M369,418.61c-4,.18-6,2.7-6.38,6.45-.27,2.89-.06,5.83-.06,8.74h0v8.31c0,.29,0,.58,0,.87.25,4.31,2.87,7.23,6.6,7.36a6.88,6.88,0,0,0,7-6.46,92.39,92.39,0,0,0-.16-19.6C375.5,420.33,373,418.43,369,418.61Z"/><path class="cls-6" d="M354.11,403c-3.05-.16-6.12,0-9.18,0v0c-3.06,0-6.13-.15-9.17,0-3.78.25-6.32,2.19-6.64,6.17s1.54,6.6,5.46,7.14a78.14,78.14,0,0,0,20.44,0c3.87-.49,5.94-3.23,5.68-7.06S358,403.2,354.11,403Z"/><path class="cls-7" d="M272.57,338.58A96.27,96.27,0,0,0,245.91,355c-6.58,5.73-12.13,12.36-15.24,21.32l.14-.07c3-1.31,4.66-3.29,6.62-4.94,7.49-6.29,15.26-12.15,24.83-15A38.08,38.08,0,0,1,276,338h0l-.42,0A7.24,7.24,0,0,0,272.57,338.58Z"/><path class="cls-8" d="M204.86,268.93c4.88-1,9.77-1.94,14.61-3.07,6.2-1.45,11.26-2.21,18.69-3.31l.43-.06h0l-38.51.81h0a13.75,13.75,0,0,0,2.83,6Z"/><path class="cls-3" d="M418.89,261.53c11.5-15.44,11.43-39.88,6.12-48.29l-.09-.14c-6.66,36.78-27.52,61-65.05,69.94a48.8,48.8,0,0,0,16,2.43C391.82,285.22,407.38,277,418.89,261.53Z"/><rect class="cls-1" width="500" height="500"/></g></g></svg>