<svg xmlns="http://www.w3.org/2000/svg" viewBox="0 0 500 500"><defs><style>.cls-1{fill:none;}.cls-2{fill:#fe971a;}.cls-3{fill:#fec177;}.cls-4{fill:#02383c;}.cls-5{fill:#01282b;}.cls-6{fill:#feedd0;}.cls-7{fill:#ecd7b5;}.cls-8{fill:#e7c591;}.cls-9{fill:#e7c592;}.cls-10{fill:#022e30;}.cls-11{fill:#be4105;}.cls-12{fill:#014a4f;}.cls-13{fill:#04747c;}.cls-14{fill:#973404;}.cls-15{fill:#fec176;}.cls-16{fill:#963304;}.cls-17{fill:#be4206;}.cls-18{fill:#fdc076;}.cls-19{fill:#fcc075;}.cls-20{fill:#fdc075;}.cls-21{fill:#fcbf75;}.cls-22{fill:#ec5107;}.cls-23{fill:#05a3af;}.cls-24{fill:#05a3ae;}.cls-25{fill:#fd971a;}.cls-26{fill:#fc971b;}.cls-27{fill:#03383c;}.cls-28{fill:#04383c;}.cls-29{fill:#eb5208;}.cls-30{fill:#05393b;}.cls-31{fill:#06393c;}.cls-32{fill:#06393b;}.cls-33{fill:#fb961b;}.cls-34{fill:#f9961b;}.cls-35{fill:#fa951a;}</style></defs><g id="Livello_2" data-name="Livello 2"><g id="Livello_1-2" data-name="Livello 1"><path class="cls-1" d="M440.81,382.21v0l0,0Z"/><path class="cls-1" d="M419.77,387.88s.05.08.08.11l.19-.21h0Z"/><path class="cls-1" d="M223.11,146.32l.27-.17h0l-.46-.15Z"/><path class="cls-2" d="M470.89,115.19c-3-1.56-2.1-4.17-2.39-6.55-.23-1.91,1.4-5.34-3.32-3.78-6.14,2-8.45-.32-7.09-6.74h0c-3.5.52-6.6,2.19-9.89,3.32h0c2.73,0,5.64-.11,6.1,3.51s-2.05,4.85-4.9,5.8c-2.49.82-4.93,2.33-7.42.06-2.11-1.92-1.84-4.15-.78-6.46a2.77,2.77,0,0,0-.87,0c-15.17,5.92-13.42,2.73-13.49,18.58,0,3,0,5.89,0,8.84,0,3.9,2,5.92,6,6.16,11.1.68,16,4.52,18.67,15.09a13.85,13.85,0,0,0,3,5.25h0a10.55,10.55,0,0,0,5.17-.39l12.43-4.6h0a13.88,13.88,0,0,0,5.43-3.79V113.11C475.46,114.34,474,116.79,470.89,115.19Zm-8,17.05c-3.45,2.71-7,2.78-10.26-.5a11.25,11.25,0,0,1,1.31-16.86c2-1.45,4.21-2.72,6.74-.93h0C467.8,117.48,469.06,127.38,462.86,132.24Z"/><path class="cls-2" d="M468.18,355.23c-2.82.79-5.62,1.56-8.4,2.38-1.56.45-1.84,1.72-1.83,3.13,0,4.73-1.41,9.2-2.56,13.73,2.06,0,4.22-.87,6.08.71,6,4.59,7,11.22,2.88,16.51-3.94,5.07-12.21,3.91-13.55-2.28h0c-1.78-2.15-.49-4.72-1-7h0a15.08,15.08,0,0,0-.72,2,3.78,3.78,0,0,1-4.47,3.28c-3.38-.3-3.65-2.86-3.8-5.45h0c-3.63,3.29-7.5,6.29-12.1,8-3.69,1.37-4.74,3.74-4.61,7.49.25,7.1.07,14.21.07,21.32h0c1.94,2.27,4.16,1.46,6.43.65,13-4.64,25.94-9.34,39-13.84a14.85,14.85,0,0,0,7.93-5.76V362.75C471.34,367.49,469.68,366.17,468.18,355.23Z"/><path class="cls-3" d="M472.38,344.09h0c-5.95,2-11.88,4.08-17.86,6-3.4,1.07-5.29,3.29-5.3,6.72a40.9,40.9,0,0,1-8.4,25.41h0v0c.15,2.59.42,5.15,3.8,5.45a3.78,3.78,0,0,0,4.47-3.28,15.08,15.08,0,0,1,.72-2h0c.48-3.61,2.85-5.88,5.59-7.89h0c1.15-4.53,2.56-9,2.56-13.73,0-1.41.27-2.68,1.83-3.13,2.78-.82,5.58-1.59,8.4-2.38,1.5,10.94,3.16,12.26,9.29,7.52v-15.1C475.61,346.7,474.71,344.36,472.38,344.09Z"/><path class="cls-3" d="M471.3,91.86c-2.38,2.61-5.93,2.78-8.88,4.21l-4.33,2.05h0c-1.36,6.42,1,8.77,7.09,6.74,4.72-1.56,3.09,1.87,3.32,3.78.29,2.38-.61,5,2.39,6.55s4.57-.85,6.58-2.08V95.34c-1.94-1.36-3.53-3.35-6.16-3.49Z"/><path class="cls-4" d="M195.85,448.08q0-140.74,0-281.49a18.72,18.72,0,0,1,.25-4c1.39-6.35,2.39-7.12,8.26-4.69,4.3,1.78,6.75,1.46,9.16-3.07,2-3.74,5.9-6.2,9.58-8.54l-.19-.32-8.44-2.59c-5.18,3.06-10.47,5.93-14.65,10.46-2.09,2.27-4.49.39-6.57-.38-13.81-5.09-27.57-10.33-41.35-15.5q-23.78-8.91-47.57-17.78l-24-8.88c-.06,8.12-.1,16.25-.17,24.37,0,6.23-1.8,7.86-8,7.54-10.58-.56-12.71.8-15.61,10.75-1,3.27-2.79,4.67-6.07,4.48-1.62-.09-3.24-.12-4.86-.17h0c-4.85.74-8.72-2.23-13-3.47-1.55-.44-3.06-1-4.59-1.54h0l.07,109.94c2.75-4.72,6.88-7.05,10.68-6,4.08,1.11,6.93,5.48,6.94,10.65v76.84h0a1.78,1.78,0,0,0,.41.17c7.49,1.2,10.74,5.22,11,13.17.49,14.19,8.23,23.92,21.3,29.3,2.82,1.16,3.63,3,3.62,5.84,0,5.9.09,11.8.15,17.7h0c9.08,3.41,18.14,6.85,27.23,10.21q43.63,16.09,87.3,32.14C195.65,451.65,195.85,449.85,195.85,448.08Zm-53.7-80.57A47.71,47.71,0,0,0,130,353.06h0c-4.35-1.62-8.27-4.21-13.09-4.85-5.33-.71-10,.23-13.82,3.9-2,1.92-2.79,1.46-3.46-.87-1.17-4-3.09-8-1.56-12.32.63-8.76,5.31-13.67,14.35-15h0a17.7,17.7,0,0,1,12.28,2.61,16.49,16.49,0,0,1,6.52,4.11h0a25.18,25.18,0,0,1,9.71,11C146.57,351.2,147.16,361.19,142.15,367.51Zm-13.93-65.17h0c-8.77,1.31-24.11-9.92-28.14-22.11A27.59,27.59,0,0,1,98,266.39c1.22-12.2,13-17.87,25.34-12.16,6.46,2,11.27,6.16,15,11.71a22.44,22.44,0,0,1,5,9h0a14.52,14.52,0,0,1,2,9.52C145.94,295.92,139.42,302.73,128.22,302.34ZM145.07,218c-1.87,7.75-5.7,11.38-13.27,12.58a7,7,0,0,1-1.6.22c-8.11.85-14.49-3.26-20.38-8.25A31.14,31.14,0,0,1,100.25,209c-2.91-7.32-3.87-14.57.66-22.34a52.92,52.92,0,0,0,9.67,12.67c4.63,3.21,9.46,6,15,7.33l4.61.55c4.34-1.2,8.85-2.06,12.23-6.75C145,206.53,147,211.94,145.07,218Z"/><path class="cls-5" d="M289.91,163.91c0-3.67,1.64-4.85,4.44-5.89q24.09-8.88,48.14-17.84l54.77-20.32a11.19,11.19,0,0,0,4.7-3.2,29.9,29.9,0,0,0,5.24-12.49c.29-1.47.62-3.27-.89-4.53h0q-29.13,10.49-58.25,21-33.69,12.21-67.33,24.56c-2.9,1.07-5.37,1.27-7.75-.87a96.5,96.5,0,0,0-18.49-4.5h-8.9l-14.2,2.64-8,3.71h0l-.27.17c-3.68,2.34-7.59,4.8-9.58,8.54-2.41,4.53-4.86,4.85-9.16,3.07-5.87-2.43-6.87-1.66-8.26,4.69a18.72,18.72,0,0,0-.25,4q0,140.75,0,281.49c0,1.77-.2,3.57.88,5.16a97.81,97.81,0,0,1,24.74,13.56c12.46,9.17,27.36,9.53,42.29,6.49,9.86-2,17.81-7.18,24.51-14.51,1.74-5.18,1.93-10.4,1.92-15.92C290,349.88,290.05,256.89,289.91,163.91ZM235.71,228a130.48,130.48,0,0,0,30,0c1.47-.16,2.95-.14,4.42-.32,3.17-.37,4.21,1.27,4.2,4.15,0,8.72-.05,17.43,0,26.15,0,2.82-1,4.33-4,4.7a23,23,0,0,1-6.14.41c-11.5,1.43-23,.71-34.42-.62-3.07-.35-4-1.79-3.93-4.62.12-6.78.11-13.57.15-20.36h0C224.94,227.48,225.88,226.78,235.71,228Zm38.56,154.49c0,1.8-.93,3.28-2.88,3.27-2.66,0-5.16,1.46-7.87.71a172.75,172.75,0,0,1-33.49-.66c-2.82-.31-4.21-1.5-4.14-4.51.14-6.47.11-12.94.15-19.42h0c-.39-11.22-2-12,9.74-10.58a143.27,143.27,0,0,0,34.38-.47c2.62-.31,4.08.85,4.11,3.33C274.36,363.6,274.32,373.05,274.27,382.49Zm.08-65.16c0,6.59-.42,7-7,7.23-.73,0-1.47,0-2.2,0-11.77,1.74-23.51.87-35.24-.4-2.8-.31-4.15-1.56-4.06-4.58.19-6.62.13-13.25.17-19.88h0a3.84,3.84,0,0,1-.23-.85C225.72,291,224.2,288,235,289.6a106.85,106.85,0,0,0,33.9-.4c3.79-.64,5.53.72,5.47,4.67C274.27,301.69,274.35,309.51,274.35,317.33Z"/><path class="cls-4" d="M418,393.33a7.18,7.18,0,0,1,1.81-5.34s-.05-.08-.08-.11L383.28,401c-1.52.54-3,1.05-4.57,1.57q-34.23,12.66-68.47,25.32c-3.7,1.37-5-.51-5.05-3.78,0-14.78.08-29.57.13-44.36h0q-.09-35.43-.16-70.86c0-12,0-23.91.06-35.87h0q0-45.44-.08-90.86c0-2.24.32-4.18,2.69-5,6.79-2.41,13.35-5.46,20.39-7.13a50.64,50.64,0,0,1,12.45-4.43c8.8-4.51,18.38-7,27.5-10.71C371,153.69,374,153,377,152.05c10.11-3.84,20.21-7.71,30.34-11.5,4.1-1.54,8.27-2.91,12.41-4.36V111.33c-5,1.91-10.05,3.81-15.06,5.75-1,.4-1.95.64-2.71-.42a11.19,11.19,0,0,1-4.7,3.2l-54.77,20.32Q318.43,149.1,294.35,158c-2.8,1-4.44,2.22-4.44,5.89.14,93,0,186,.28,279,0,5.52-.18,10.74-1.92,15.92,1.54-.46,3.11-.85,4.62-1.41q62.51-23.25,125-46.54C418,405,418.08,399.16,418,393.33Z"/><path class="cls-6" d="M245.59,139.8h8.9c4.45-12.15,11.24-23,19.25-33a130.45,130.45,0,0,1,81.45-47c6.4-.92,12.79-1.88,19.28-1.81h0c0-9.76-.07-19.52,0-29.29,0-2.25-.38-3.52-3.11-3.58-9.9-.22-19.78.12-29.46,2.21C315.49,33,293.4,45.9,276.22,66.92a112.74,112.74,0,0,0-23.61,49.82c-1.08,5.37-1.67,10.79-2.41,16.25-1.67-3.58-1.16-7.4-1.78-11.05q-9.75-57.06-60.7-84.3c-18.18-9.71-37.95-13.28-58.53-12.55-2.69.1-3.6.89-3.57,3.59.1,9.77,0,19.53,0,29.29,30.95.64,58.45,10.6,82.37,30.35A126.78,126.78,0,0,1,245.59,139.8Z"/><path class="cls-7" d="M307.82,77a126.94,126.94,0,0,0-34.08,29.77c-8,10-14.8,20.86-19.25,33a96.5,96.5,0,0,1,18.49,4.5c2.86-1.18,4.5-3.79,6.3-6,7.66-9.29,16.68-17.06,26.07-24.48,19.4-15.35,41.24-25.74,65.06-32a193.24,193.24,0,0,1,31.25-5.32c9-.85,18-.35,27-.74h0c0-4.44-.28-8.89,0-13.31.21-3.5-.92-4.54-4.46-4.51-16.57.17-33.14.05-49.71,0h0c-6.49-.07-12.88.89-19.28,1.81A126,126,0,0,0,307.82,77Z"/><path class="cls-7" d="M126.67,81.22A197.47,197.47,0,0,1,161.87,93a207.78,207.78,0,0,1,48.07,29.59c7.52,6.18,14.32,13.21,21.45,19.86l14.2-2.64A126.78,126.78,0,0,0,208,88.32C184.07,68.57,156.57,58.61,125.62,58c-16.72,0-33.44.11-50.16,0-3.12,0-4.15.95-4,4,.21,4.58,0,9.17,0,13.76h0A220.08,220.08,0,0,1,126.67,81.22Z"/><path class="cls-8" d="M122.1,109.77h0q46.43,16.2,92.38,33.64h0l8.44,2.59.46.15h0l8-3.71c-7.13-6.65-13.93-13.68-21.45-19.86A207.78,207.78,0,0,0,161.87,93a197.47,197.47,0,0,0-35.2-11.77,220.08,220.08,0,0,0-55.24-5.46h0l-5.33,0c-9.7,0-9.7,0-9.81,9.64l60.45,22.28C118.53,108.38,120.31,109.08,122.1,109.77Z"/><path class="cls-9" d="M370.41,81.82c-23.82,6.29-45.66,16.68-65.06,32-9.39,7.42-18.41,15.19-26.07,24.48-1.8,2.19-3.44,4.8-6.3,6,2.38,2.14,4.85,1.94,7.75.87q33.61-12.41,67.33-24.56,29.12-10.55,58.25-21c11.26-5.11,23.15-8.55,34.63-13.09l2.88-1.14h0a50.33,50.33,0,0,1,0-5.76c.36-3.23-1.06-4.08-4.06-3.91-3.69.22-7.39,0-11.08,0h0c-9,.39-18-.11-27,.74A193.24,193.24,0,0,0,370.41,81.82Z"/><path class="cls-2" d="M76,396.63c.08-3.12-1-5-3.88-6.09-3.88-1.47-7.11-4-10.51-6.31.27,2.78.19,5.44-3.33,6-3.69.62-5.56-1.86-7.08-4.62-.53-1,.09-2.37-.91-3.27h0c-.52,2.32.79,4.9-1,7h0c-1,3.54-3.34,5.31-7.05,5.45-4,.16-6.3-2.31-7.86-5.43-2.57-5.12-.91-10.26,4.25-14.25h0c3.12-1.93,5.88-.73,8.59,1,1-3.62,3.88-2.71,6.41-2.59q-1.23-5.4-2.45-10.79h0c.13,3.25-.56,6.22-4.51,6.05-3.49-.16-4.51-3.1-4.41-6,.1-3.22-.54-5.29-4.2-5.84a5.35,5.35,0,0,1-4.58-4.26c-.51-2.65,1.67-3.82,3.45-5.12l-8.67-3.5h0l-.31-.15h0c-3.23,1.6-5.41,3.72-5.37,7.78.13,14.9.1,29.8,0,44.7,0,4.44,2,7.26,6.09,8.71,13.85,4.94,27.73,9.83,41.58,14.81,2.12.77,4,.91,5.68-.81h0C75.93,411.61,75.8,404.12,76,396.63Z"/><path class="cls-2" d="M45.65,158.3h0a13.19,13.19,0,0,0,3.21-6.13c2.76-9.94,7.78-13.77,18-14.21,4.31-.19,6.2-2,6.32-6.26.08-3-.07-5.92-.11-8.87-1.83,1.7-3.6,3.7-6.49,2.34-2.7-1.26-2.54-3.82-2.27-6.13.41-3.47-1.91-4.21-4.38-4.89s-4.53-1.65-5.11-4.28c-.62-2.81,1.59-4.15,3.36-5.66-2.31-1.24-4.52-2.74-7.32-2.53.24,2.79.88,5.8-2.84,6.9-2.74.82-10.11-2.09-11.05-4.25-1.5-3.43.52-6,5.13-6.46-4.31-2.31-9.46-2.69-13.41-5.84h0c-4.46.9-6.24,3.53-6.18,8.16q.29,22.36,0,44.73c-.07,4.35,1.38,7.07,5.49,8.37h0c1.53.52,3,1.1,4.59,1.54C36.93,156.07,40.8,159,45.65,158.3ZM39.47,114a2.11,2.11,0,0,1,1.37-.3,8.37,8.37,0,0,1,9.21,7c.59,3.92.66,7.93-2.61,11-4.83,3.54-9.57,2.89-12.34-1.7C31.45,123.94,33.34,117,39.47,114Z"/><path class="cls-10" d="M28.24,344.07h0c3.76-3.48,7.83-2.93,12.09-1.05a48.71,48.71,0,0,0,5.38,1.69h0V267.87c0-5.17-2.86-9.54-6.94-10.65-3.8-1-7.93,1.29-10.68,6q-.07,40.35-.16,80.68h0Z"/><path class="cls-5" d="M80.36,111.33h0l24,8.88a19.54,19.54,0,0,1,12.85-8.85,15,15,0,0,0,4.91-1.59h0c-1.79-.69-3.57-1.39-5.36-2L56.29,85.44c-7.48-4.59-13.37-1.38-18.86,3.82C49.61,93.89,61.74,98.67,74,103.07,78.19,104.57,80.42,106.9,80.36,111.33Z"/><path class="cls-11" d="M50.9,101.68h0c2.8-.21,5,1.29,7.32,2.53,4.13.44,7.79,2.4,11.6,3.84a5.23,5.23,0,0,1,3.44,5.56c-.13,3.07-.1,6.15-.15,9.22h0c0,3,.19,5.91.11,8.87-.12,4.27-2,6.07-6.32,6.26-10.26.44-15.28,4.27-18,14.21a13.19,13.19,0,0,1-3.21,6.13h0c1.62,0,3.24.08,4.86.17,3.28.19,5.11-1.21,6.07-4.48,2.9-10,5-11.31,15.61-10.75,6.2.32,8-1.31,8-7.54.07-8.12.11-16.25.17-24.37h0c.06-4.43-2.17-6.76-6.36-8.26-12.26-4.4-24.39-9.18-36.57-13.81-3.19,0-5.83,1.76-8.7,2.77h0c3.95,3.15,9.1,3.53,13.41,5.84C45.19,98.84,48.36,99.54,50.9,101.68Z"/><path class="cls-11" d="M419.73,111.33v24.86l1.17,5.26h0c2.4,2.39,5.37,1.85,8.32,1.69,8.77-.47,12,1.46,13.94,10,1.47,6.48,6.18,5.05,10.33,5.52l.95-.34h0a13.85,13.85,0,0,1-3-5.25c-2.67-10.57-7.57-14.41-18.67-15.09-3.93-.24-5.91-2.26-6-6.16,0-2.95,0-5.89,0-8.84.07-15.85-1.68-12.66,13.49-18.58a2.77,2.77,0,0,1,.87,0,24.88,24.88,0,0,1,7-2.91h0c3.29-1.13,6.39-2.8,9.89-3.32h0l4.33-2.05c2.95-1.43,6.5-1.6,8.88-4.21h0c-2.85-.84-5.45-2.53-8.53-2.66-12.21,4.66-24.35,9.49-36.66,13.89C421.89,104.59,419.67,106.88,419.73,111.33Z"/><path class="cls-12" d="M440.94,86.55c-11.48,4.54-23.37,8-34.63,13.09h0c1.51,1.26,1.18,3.06.89,4.53A29.9,29.9,0,0,1,402,116.66c.76,1.06,1.67.82,2.71.42,5-1.94,10-3.84,15.06-5.75-.06-4.45,2.16-6.74,6.38-8.25,12.31-4.4,24.45-9.23,36.66-13.89-5.45-5.6-11.45-8.46-18.95-3.78h0Z"/><path class="cls-11" d="M424.08,397.69c-.13-3.75.92-6.12,4.61-7.49,4.6-1.71,8.47-4.71,12.1-8l0,0h0a40.9,40.9,0,0,0,8.4-25.41c0-3.43,1.9-5.65,5.3-6.72,6-1.88,11.91-4,17.86-6h0a.79.79,0,0,0-.38-.32c-3.93-3-8.08-2.59-12.33-.81h0l-6.15,1.92h0c-8.57,1.32-10.51,7.15-10.72,14.8a26,26,0,0,1-6,16.17h0c-4.08,6.07-10,9.62-16.72,11.93h0l-.19.21a7.18,7.18,0,0,0-1.81,5.34c0,5.83-.08,11.67-.13,17.5-.46,4.67,2.39,6.8,6.24,8.18h0C424.15,411.9,424.33,404.79,424.08,397.69Z"/><path class="cls-11" d="M78.43,387.35c-13.07-5.38-20.81-15.11-21.3-29.3-.27-7.95-3.52-12-11-13.17a1.78,1.78,0,0,1-.41-.17h0A48.71,48.71,0,0,1,40.33,343c-4.26-1.88-8.33-2.43-12.09,1.05h0l8.67,3.5c2.83.78,5.68,1.48,8.49,2.33,3.7,1.13,5.52,3.69,5.55,7.57,0,1.77.14,3.54.21,5.31h0q1.23,5.4,2.45,10.79c2.52,3.66,4.7,7.58,8,10.66h0c3.4,2.28,6.63,4.84,10.51,6.31,2.83,1.07,4,3,3.88,6.09-.19,7.49-.06,15-.06,22.47h0c3.75-1.47,6.7-3.55,6.27-8.21h0c-.06-5.9-.18-11.8-.15-17.7C82.06,390.4,81.25,388.51,78.43,387.35Z"/><path class="cls-4" d="M472,343.77c.05-8.58.14-17.16.14-25.74q0-82.35-.09-164.71h0l-12.43,4.6q0,92.52.05,185C463.91,341.18,468.06,340.75,472,343.77Z"/><path class="cls-13" d="M453.49,158.65h0q0,93.12,0,186.23h0l6.15-1.92h0q0-92.52-.05-185a10.55,10.55,0,0,1-5.17.39h0Z"/><path class="cls-11" d="M459.42,114.84c-.24-.57.66-.79,1.23-.89h0c-2.53-1.79-4.73-.52-6.74.93a11.25,11.25,0,0,0-1.31,16.86C459.43,128,462.74,122.76,459.42,114.84Z"/><path class="cls-14" d="M460.65,114h0c-.57.1-1.47.32-1.23.89,3.32,7.92,0,13.11-6.82,16.9,3.27,3.28,6.81,3.21,10.26.5C469.06,127.38,467.8,117.48,460.65,114Z"/><path class="cls-15" d="M441.2,104.35c-1.06,2.31-1.33,4.54.78,6.46,2.49,2.27,4.93.76,7.42-.06,2.85-1,5.35-2.29,4.9-5.8s-3.37-3.55-6.1-3.51h0A24.88,24.88,0,0,0,441.2,104.35Z"/><path class="cls-16" d="M460.62,379.78c-.13,6.69-2.95,9.5-9.82,9.63h0c1.34,6.19,9.61,7.35,13.55,2.28,4.1-5.29,3.1-11.92-2.88-16.51C460,376.5,460.65,378.23,460.62,379.78Z"/><path class="cls-11" d="M450.8,389.41h0c6.87-.13,9.69-2.94,9.82-9.63,0-1.55-.59-3.28.85-4.6-1.86-1.58-4-.68-6.08-.71h0c-2.74,2-5.11,4.28-5.59,7.89h0C450.31,384.69,449,387.26,450.8,389.41Z"/><path class="cls-12" d="M214.48,143.41q-46-17.4-92.38-33.64h0a15,15,0,0,1-4.91,1.59,19.54,19.54,0,0,0-12.85,8.85q23.78,8.9,47.57,17.78c13.78,5.17,27.54,10.41,41.35,15.5,2.08.77,4.48,2.65,6.57.38,4.18-4.53,9.47-7.4,14.65-10.46Z"/><path class="cls-2" d="M138.92,285.26c-2.71-2.42-2.16-5.87-1.4-8.73S141.2,275,143.3,275a22.44,22.44,0,0,0-5-9c-.22,1.68.12,3.68-2.17,4.29-1.92.51-3.37-.27-4.65-1.69a29.2,29.2,0,0,0-7.83-6.26c-4.53-2.47-4.58-4.75-.32-8h0c-12.31-5.71-24.12,0-25.34,12.16a27.59,27.59,0,0,0,2.13,13.84c4.39-4.1,5.49-3.92,8.54,1.3,3.73,6.39,8.75,10.93,16.39,12.23,5.43.92,6.12,3.16,3.21,8.58,11.2.39,17.72-6.42,17.08-17.86C143.32,286,141.14,287.24,138.92,285.26Z"/><path class="cls-2" d="M135.74,343c-1.91-2.44-4-4.67-6.05-7s-2.11-4.47,1.49-5.42h0a16.49,16.49,0,0,0-6.52-4.11c.43,4.05-1.34,5-4.94,3.61a16.11,16.11,0,0,0-4.63-1c-3.93-.24-4.41-2.1-2.71-5.18h0c-9,1.36-13.72,6.27-14.35,15,4.77-1.24,5.37,2.05,5.67,5.75,9.64-4.37,18.34-2.07,26.76,2.7,1.2.67,2.3,1.36,2.28,2.95,0,1.84-1.07,2.62-2.78,2.74h0a47.71,47.71,0,0,1,12.19,14.45c5-6.32,4.42-16.31-1.26-25.88C139.59,345.5,138.09,346,135.74,343Z"/><path class="cls-2" d="M140,214.86c-.1-1.44.33-2.94-.49-4.37-3.21.26-6.45,2.87-9.63.28-1.3-1.06-.25-2.43.35-3.59h0l-4.61-.55c.94,1.31,1.35,2.59,0,3.94a3.2,3.2,0,0,1-3.61.68,33.05,33.05,0,0,1-12.15-6.09c-2.67-2.25-3-4.36.77-5.86h0a52.92,52.92,0,0,1-9.67-12.67c-4.53,7.77-3.57,15-.66,22.34,1.9-3.35,4-3.29,5.82-.07,4.8,8.36,11.15,14.62,21,16.53,1.55.29,3.13,1.1,2.51,3.36-.57,2.08,1.36,1.32,2.18,1.83-.54.09-1.07.17-1.6.22a7,7,0,0,0,1.6-.22c7.57-1.2,11.4-4.83,13.27-12.58C141.57,219.87,140.19,218.31,140,214.86Z"/><path class="cls-11" d="M125,293.76c-7.64-1.3-12.66-5.84-16.39-12.23-3.05-5.22-4.15-5.4-8.54-1.3,4,12.19,19.37,23.42,28.14,22.11h0C131.13,296.92,130.44,294.68,125,293.76Z"/><path class="cls-17" d="M132.74,350.32c0-1.59-1.08-2.28-2.28-2.95-8.42-4.77-17.12-7.07-26.76-2.7-.3-3.7-.9-7-5.67-5.75-1.53,4.36.39,8.29,1.56,12.32.67,2.33,1.44,2.79,3.46.87,3.84-3.67,8.49-4.61,13.82-3.9,4.82.64,8.74,3.23,13.09,4.85h0C131.67,352.94,132.72,352.16,132.74,350.32Z"/><path class="cls-17" d="M129.62,228.79c.62-2.26-1-3.07-2.51-3.36-9.89-1.91-16.24-8.17-21-16.53-1.85-3.22-3.92-3.28-5.82.07a31.14,31.14,0,0,0,9.57,13.62c5.89,5,12.27,9.1,20.38,8.25.53-.05,1.06-.13,1.6-.22C131,230.11,129.05,230.87,129.62,228.79Z"/><path class="cls-18" d="M123.61,262.28a29.2,29.2,0,0,1,7.83,6.26c1.28,1.42,2.73,2.2,4.65,1.69,2.29-.61,1.95-2.61,2.17-4.29-3.7-5.55-8.51-9.69-15-11.71h0C119,257.53,119.08,259.81,123.61,262.28Z"/><path class="cls-19" d="M130.19,207.18h0c-.6,1.16-1.65,2.53-.35,3.59,3.18,2.59,6.42,0,9.63-.28.82,1.43.39,2.93.49,4.37.23,3.45,1.61,5,5.11,3.18,1.9-6.1-.07-11.51-2.65-17.61C139,205.12,134.53,206,130.19,207.18Z"/><path class="cls-18" d="M109.81,205.16A33.05,33.05,0,0,0,122,211.25a3.2,3.2,0,0,0,3.61-.68c1.36-1.35,1-2.63,0-3.94-5.54-1.33-10.37-4.12-15-7.33h0C106.82,200.8,107.14,202.91,109.81,205.16Z"/><path class="cls-20" d="M129.69,336c2.06,2.28,4.14,4.51,6.05,7,2.35,3,3.85,2.52,5.15-1.35a25.18,25.18,0,0,0-9.71-11h0C127.58,331.56,127.5,333.62,129.69,336Z"/><path class="cls-18" d="M143.3,275h0c-2.1,0-5-1.26-5.78,1.57s-1.31,6.31,1.4,8.73c2.22,2,4.4.77,6.38-.78A14.52,14.52,0,0,0,143.3,275Z"/><path class="cls-21" d="M115.09,329.07a16.11,16.11,0,0,1,4.63,1c3.6,1.35,5.37.44,4.94-3.61a17.7,17.7,0,0,0-12.28-2.61h0C110.68,327,111.16,328.83,115.09,329.07Z"/><path class="cls-2" d="M258.93,299.39c-8.73.55-17.47,2.33-26.29.46-2.11-.45-4.39-.13-6.6-.16h0c0,6.63,0,13.26-.17,19.88-.09,3,1.26,4.27,4.06,4.58,11.73,1.27,23.47,2.14,35.24.4,0-6.62,0-13.23,0-19.85C265.12,299.23,264.31,299.05,258.93,299.39Z"/><path class="cls-2" d="M264.24,241.83c0-4.48-1.33-5.08-5.64-4.78-9.21.65-18.41,2.5-27.7.58a27.06,27.06,0,0,0-4.86-.13h0c0,6.79,0,13.58-.15,20.36,0,2.83.86,4.27,3.93,4.62,11.47,1.33,22.92,2,34.42.62C264.24,256,264.29,248.92,264.24,241.83Z"/><path class="cls-2" d="M264.07,364c0-2.14-2-3.31-4.18-2.95a137,137,0,0,1-33.85.83h0c0,6.48,0,12.95-.15,19.42-.07,3,1.32,4.2,4.14,4.51a172.75,172.75,0,0,0,33.49.66C265.07,379,264.08,371.49,264.07,364Z"/><path class="cls-22" d="M270.16,350.83a143.27,143.27,0,0,1-34.38.47c-11.72-1.41-10.13-.64-9.74,10.58h0a137,137,0,0,0,33.85-.83c2.22-.36,4.18.81,4.18,2.95,0,7.49,1,15-.55,22.47,2.71.75,5.21-.72,7.87-.71,1.95,0,2.87-1.47,2.88-3.27.05-9.44.09-18.89,0-28.33C274.24,351.68,272.78,350.52,270.16,350.83Z"/><path class="cls-22" d="M268.9,289.2a106.85,106.85,0,0,1-33.9.4c-10.8-1.65-9.28,1.37-9.19,9.24a3.84,3.84,0,0,0,.23.85h0c2.21,0,4.49-.29,6.6.16,8.82,1.87,17.56.09,26.29-.46,5.38-.34,6.19-.16,6.21,5.31,0,6.62,0,13.23,0,19.85.73,0,1.47,0,2.2,0,6.56-.23,7-.64,7-7.23,0-7.82-.08-15.64,0-23.46C274.43,289.92,272.69,288.56,268.9,289.2Z"/><path class="cls-22" d="M226,237.5a27.06,27.06,0,0,1,4.86.13c9.29,1.92,18.49.07,27.7-.58,4.31-.3,5.6.3,5.64,4.78.05,7.09,0,14.18,0,21.27a23,23,0,0,0,6.14-.41c3-.37,4-1.88,4-4.7-.06-8.72,0-17.43,0-26.15,0-2.88-1-4.52-4.2-4.15-1.47.18-2.95.16-4.42.32a130.48,130.48,0,0,1-30,0c-9.83-1.22-10.77-.52-9.67,9.5Z"/><path class="cls-23" d="M377,397.23h0c-11.83,3.26-23.05,8.24-34.59,12.3q-13.78,4.85-27.4,10.15c-3.2,1.25-3.72.29-3.7-2.71.08-12.43,0-24.85,0-37.28h0c-2-2.11-4-2.31-5.94,0h0c-.05,14.79-.14,29.58-.13,44.36,0,3.27,1.35,5.15,5.05,3.78q34.23-12.68,68.47-25.32C378.94,400.5,379.32,398.42,377,397.23Z"/><path class="cls-23" d="M311.24,273.84h0c0-28.91.13-57.83,0-86.74,0-3.46.78-5.31,4.28-6.38,4.9-1.5,9.62-3.62,14.42-5.48h0c0-1.94.63-4.1-1.74-5.27-7,1.67-13.6,4.72-20.39,7.13-2.37.84-2.69,2.78-2.69,5q.08,45.44.08,90.86h0C306.85,275.9,308.83,276.36,311.24,273.84Z"/><path class="cls-13" d="M311.26,379.69h0q0-52.92,0-105.85h0c-2.41,2.52-4.39,2.06-6-.86h0c0,12-.08,23.91-.06,35.87q0,35.43.16,70.86h0C307.29,377.38,309.27,377.58,311.26,379.69Z"/><path class="cls-13" d="M426.47,378.75c-15.62,5.6-31.2,11.33-46.78,17a20.05,20.05,0,0,0-2.7,1.44c2.33,1.19,1.95,3.27,1.72,5.3,1.52-.52,3.05-1,4.57-1.57l36.49-13.08.27-.1h0c6.76-2.31,12.64-5.86,16.72-11.93h0C432.87,375.19,429.81,377.55,426.47,378.75Z"/><path class="cls-13" d="M378.75,157.35h0q20-7.24,39.93-14.5a12.63,12.63,0,0,0,2.21-1.4h0l-1.17-5.26c-4.14,1.45-8.31,2.82-12.41,4.36-10.13,3.79-20.23,7.66-30.34,11.5C379.36,153.22,378.89,155.33,378.75,157.35Z"/><path class="cls-24" d="M344.26,170h0q17.43-5.82,34.49-12.67h0c.14-2,.61-4.13-1.77-5.3-2.94.91-6,1.64-8.81,2.78-9.12,3.68-18.7,6.2-27.5,10.71C340.55,168.09,341.68,169.63,344.26,170Z"/><path class="cls-13" d="M330,175.24h0l14.3-5.21c-2.58-.4-3.71-1.94-3.59-4.49A50.64,50.64,0,0,0,328.22,170C330.59,171.14,330,173.3,330,175.24Z"/><path class="cls-3" d="M33.46,352.69A5.35,5.35,0,0,0,38,357c3.66.55,4.3,2.62,4.2,5.84-.1,2.94.92,5.88,4.41,6,4,.17,4.64-2.8,4.51-6.05h0c-.07-1.77-.2-3.54-.21-5.31,0-3.88-1.85-6.44-5.55-7.57-2.81-.85-5.66-1.55-8.49-2.33C35.13,348.87,33,350,33.46,352.69Z"/><path class="cls-16" d="M40.33,379.85c-.08-1.64,1.17-4-1.72-4.67-5.16,4-6.82,9.13-4.25,14.25,1.56,3.12,3.83,5.59,7.86,5.43,3.71-.14,6-1.91,7.05-5.45h0C43.43,389,40.63,385.92,40.33,379.85Z"/><path class="cls-15" d="M47.2,376.16a13.85,13.85,0,0,1,3.08,6.2h0c1,.9.38,2.29.91,3.27,1.52,2.76,3.39,5.24,7.08,4.62,3.52-.59,3.6-3.25,3.33-6h0c-3.29-3.08-5.47-7-8-10.66C51.08,373.45,48.22,372.54,47.2,376.16Z"/><path class="cls-11" d="M47.2,376.16c-2.71-1.71-5.47-2.91-8.59-1h0c2.89.68,1.64,3,1.72,4.67.3,6.07,3.1,9.17,8.94,9.56h0c1.8-2.14.49-4.72,1-7h0A13.85,13.85,0,0,0,47.2,376.16Z"/><path class="cls-3" d="M73.26,113.61a5.23,5.23,0,0,0-3.44-5.56c-3.81-1.44-7.47-3.4-11.6-3.84-1.77,1.51-4,2.85-3.36,5.66.58,2.63,2.72,3.62,5.11,4.28s4.79,1.42,4.38,4.89c-.27,2.31-.43,4.87,2.27,6.13,2.89,1.36,4.66-.64,6.49-2.34h0C73.16,119.76,73.13,116.68,73.26,113.61Z"/><path class="cls-14" d="M47.44,131.69c-5.81-4-8.79-9.2-6.53-16.48.29-.94-.74-1.07-1.44-1.25a8.18,8.18,0,0,1,1.37-.3,2.11,2.11,0,0,0-1.37.3c-6.13,3-8,10-4.37,16C37.87,134.58,42.61,135.23,47.44,131.69Z"/><path class="cls-11" d="M40.91,115.21c-2.26,7.28.72,12.43,6.53,16.48,3.27-3.11,3.2-7.12,2.61-11a8.37,8.37,0,0,0-9.21-7,8.18,8.18,0,0,0-1.37.3C40.17,114.14,41.2,114.27,40.91,115.21Z"/><path class="cls-3" d="M42.14,97.87c-4.61.49-6.63,3-5.13,6.46.94,2.16,8.31,5.07,11.05,4.25,3.72-1.1,3.08-4.11,2.84-6.9h0C48.36,99.54,45.19,98.84,42.14,97.87Z"/><path class="cls-4" d="M368.84,253.31l.06,0a.13.13,0,0,0,0-.06A.35.35,0,0,1,368.84,253.31Z"/><path class="cls-4" d="M453.49,158.65c-4.15-.47-8.86,1-10.33-5.52-1.93-8.53-5.17-10.46-13.94-10-3,.16-5.92.7-8.32-1.69h0a12.63,12.63,0,0,1-2.21,1.4q-19.95,7.28-39.93,14.5h0Q361.7,164.22,344.26,170h0L330,175.24h0c-4.8,1.86-9.52,4-14.42,5.48-3.5,1.07-4.29,2.92-4.28,6.38.11,28.91,0,57.83,0,86.74h0q0,52.92,0,105.85h0c0,12.43.12,24.85,0,37.28,0,3,.5,4,3.7,2.71q13.61-5.32,27.4-10.15c11.54-4.06,22.76-9,34.59-12.3h0a20.05,20.05,0,0,1,2.7-1.44c15.58-5.71,31.16-11.44,46.78-17,3.34-1.2,6.4-3.56,10.28-2.89h0a26,26,0,0,0,6-16.17c.21-7.65,2.15-13.48,10.72-14.8h0q0-93.12,0-186.23Zm-19.61,125C422.1,311,403,329.62,372.8,334.88a23.29,23.29,0,0,1-11.82-.52c-12.63-.5-25-10.9-28.88-25.05-4.31-15.59-1.25-30.32,6.41-44.28h0c9.56-18.6,23.47-32.56,43.1-40.42h0a44.08,44.08,0,0,1,29.28-3,27.84,27.84,0,0,1,15.38,7.77h0c6.43,4.64,9.53,11.32,11.39,18.74C440.74,260.43,439,272.25,433.88,283.7Z"/><path class="cls-2" d="M343.16,271.65a31.43,31.43,0,0,0-.9,3.33h0l6.37,8.78c.84-2.63,2.88-3.78,5.39-4.37h0c-1.76-2.54-3.49-5.09-5.28-7.61-.84-1.19-1.07-1.91.72-2.49,4.29-1.39,8.51-3,13.79-4.87-2.83,6-5.19,10.93-7.56,15.9.62,2.89,2.79,4.75,4.54,6.9h0c3.78-7.78,7.59-15.56,11.34-23.36.78-1.61,1.55-3,3.49-3.64,7.51-2.5,15-5.18,22.44-7.8-1.29-2.22-2.39-4.58-4.53-6.18h0L378,251.49a23.88,23.88,0,0,0-1.68,2.47c-.85,1.61-1.8,3.12-3.86,3-2.23-.14-3.21-1.66-3.6-3.67l-.06,0a7,7,0,0,1-4.07,3c-5.16,1.69-10.25,3.57-15.61,5,7.11-11.24,15.84-20.66,28-26.46,2-1.73,4.53-2.63,7.89-3.88-4.24-1.06-3.57-3.8-3.45-6.33h0c-19.63,7.86-33.54,21.82-43.1,40.42h0C344.06,265.27,345.07,266.73,343.16,271.65Z"/><path class="cls-3" d="M426.27,229.37h0c-3.36.36-4.13,2.62-4,5.51h0a4.45,4.45,0,0,1,.12.73,18.79,18.79,0,0,1,6.3,9.45h0c5,11.82,2.89,23.38-1.11,35.84l-9.78-14c-1.09-1.34-2.17-2.69-3.29-4s-2.28-2.75-4.34-2.26-2.89,2.18-2.94,4.24l2,3.6h0a18,18,0,0,1,4.56,6.42h0l8.17,10.57-15.42,5.19c-3,1.89-6.45,2.68-9.83,3.6-5.21,2.35-10.92,3.44-16,6.2h0c-1.77,2.87-.08,4.69,1.95,6.41,3.08-.28,5.79-1.77,8.68-2.66h0l10-3.53h0l18.59-6.58c3.94-3,4.72-7.94,7.46-12,1.9,1.84,3.88,3.41,6.53,1.55,5.15-11.45,6.86-23.27,3.78-35.59C435.8,240.69,432.7,234,426.27,229.37Z"/><path class="cls-25" d="M427.35,282.15c-2.74,4.05-3.52,9-7.46,12,0,.39.28.9.12,1.14C412.75,306,403.94,315,392.21,320.9h0c-4.18,2.44-8.5,4.56-13.34,5.38-5.21,1.81-10.6,1.86-16,1.62-.27,2.26.2,4.73-1.88,6.46h0a23.29,23.29,0,0,0,11.82.52c30.2-5.26,49.3-23.88,61.08-51.18C431.23,285.56,429.25,284,427.35,282.15Z"/><path class="cls-3" d="M385.06,230.94c-3.36,1.25-5.85,2.15-7.89,3.88l-8.28,18.41h0a.13.13,0,0,1,0,.06c.39,2,1.37,3.53,3.6,3.67,2.06.12,3-1.39,3.86-3a23.88,23.88,0,0,1,1.68-2.47c1.75-5.43,4.73-10.27,7.32-16.12L393,246.25h0c2.14,1.6,3.24,4,4.53,6.18l2.7,2.88c3.13.28,5.74-.11,5.36-4.25h0c-.09-.36-.19-.73-.29-1.09-1.58-2-3.57-3.75-4.35-6.31h0c-3.08-4.09-6.12-8.22-9.27-12.26-1.54-2-.39-2.42,1.32-2.76a41.36,41.36,0,0,1,16.14-.25h0c3-1.64,4.65-3.61,1.78-6.78h0a44.08,44.08,0,0,0-29.28,3h0C381.49,227.14,380.82,229.88,385.06,230.94Z"/><path class="cls-22" d="M362.86,327.9c-4.23-1.43-8.7-2.27-12.37-5-1.21-.92-2.95-1.47-2.81-3.5h0c-3.77-1.76-6.34-4.37-6.26-8.85h0c-2.64-1.85-2.57-4.9-2.95-7.53-1.37-9.65-.49-19.06,3.79-28h0a31.43,31.43,0,0,1,.9-3.33c1.91-4.92.9-6.38-4.65-6.62h0c-7.66,14-10.72,28.69-6.41,44.28,3.91,14.15,16.25,24.55,28.88,25.05h0C363.06,332.63,362.59,330.16,362.86,327.9Z"/><path class="cls-26" d="M409.11,228.38h0c5,1,9.16,3.49,13.12,6.5h0c-.09-2.89.68-5.15,4-5.51h0a27.84,27.84,0,0,0-15.38-7.77h0C413.76,224.77,412.09,226.74,409.11,228.38Z"/><path class="cls-4" d="M400.2,255.31h0l-2.7-2.88c-7.48,2.62-14.93,5.3-22.44,7.8-1.94.65-2.71,2-3.49,3.64-3.75,7.8-7.56,15.58-11.34,23.36h0l2.67,4.44a67.65,67.65,0,0,1,7.14,9.76l1.73,1.8h0l8.89-2.73h0c5-2.76,10.76-3.85,16-6.2l12.52-25.78h0l-2-3.6-7-9.61Z"/><path class="cls-27" d="M351.54,289h0l-2.91-5.19h0L342.26,275h0c-4.28,8.92-5.16,18.33-3.79,28,.38,2.63.31,5.68,2.95,7.53h0Z"/><path class="cls-28" d="M368.89,253.23l8.28-18.41c-12.17,5.8-20.9,15.22-28,26.46,5.36-1.44,10.45-3.32,15.61-5a7,7,0,0,0,4.07-3,.35.35,0,0,0,.05-.08Z"/><path class="cls-29" d="M351.54,289h0c2.34,1.62,3.67,4.08,5.18,6.38h0l1.57,1.53c1.76-1.55,4.37-2.33,4.61-5.21h0l-2.67-4.44c-1.75-2.15-3.92-4-4.54-6.9L354,279.4h0c-2.51.59-4.55,1.74-5.39,4.37h0Z"/><path class="cls-30" d="M363.25,264.43c-5.28,1.88-9.5,3.48-13.79,4.87-1.79.58-1.56,1.3-.72,2.49,1.79,2.52,3.52,5.07,5.28,7.61h0l1.67.93C358.06,275.36,360.42,270.39,363.25,264.43Z"/><path class="cls-31" d="M378,251.49,393,246.25h0l-7.61-10.88C382.77,241.22,379.79,246.06,378,251.49Z"/><path class="cls-25" d="M400.92,243.65h0c.78,2.56,2.77,4.29,4.35,6.31,4.45-2.52,9.39-3.66,15.3-5.77-2.64,5.5-4.78,10-7,14.53-1.06,2.17-1.83.41-2.44-.35-1.91-2.4-3.72-4.87-5.57-7.31h0c.38,4.14-2.23,4.53-5.36,4.25h0l7,9.61c.05-2.06.74-3.71,2.94-4.24s3.21.93,4.34,2.26,2.2,2.66,3.29,4c3.62-7.3,6.56-14.94,10.89-21.88h0a18.79,18.79,0,0,0-6.3-9.45l-21.43,8Z"/><path class="cls-27" d="M409.11,228.38a41.36,41.36,0,0,0-16.14.25c-1.71.34-2.86.78-1.32,2.76,3.15,4,6.19,8.17,9.27,12.26h0l21.43-8a4.45,4.45,0,0,0-.12-.73h0c-4-3-8.15-5.54-13.12-6.5Z"/><path class="cls-27" d="M417.76,266.94l9.78,14c4-12.46,6.1-24,1.11-35.84h0C424.32,252,421.38,259.64,417.76,266.94Z"/><path class="cls-28" d="M392.21,320.9C403.94,315,412.75,306,420,295.28c.16-.24-.08-.75-.12-1.14l-18.59,6.58q-3.35,7.09-6.71,14.2C393.8,316.91,393,318.91,392.21,320.9Z"/><path class="cls-25" d="M396.63,294.3c3.38-.92,6.81-1.71,9.83-3.6h0q3.63-7.89,7.25-15.76h0a18,18,0,0,0-4.56-6.42h0Z"/><path class="cls-31" d="M406.46,290.7h0l15.42-5.19-8.17-10.57h0Q410.08,282.82,406.46,290.7Z"/><path class="cls-32" d="M376.38,309.69h0l7.5,10.11c1.5-2.72,2.87-5.18,4.23-7.65h0c.85-2.72,2.88-5,3.18-7.9-2.89.89-5.6,2.38-8.68,2.66l-6.23,2.78Z"/><path class="cls-33" d="M388.11,312.15h0c2.79-.56,4.47,1.5,6.48,2.76h0q3.36-7.11,6.71-14.2h0l-10,3.53h0c-.3,2.94-2.33,5.18-3.18,7.9Z"/><path class="cls-34" d="M371.77,303.23h0l4.61,6.46h0l6.23-2.78c-2-1.72-3.72-3.54-1.95-6.41h0Z"/><path class="cls-27" d="M347.68,319.35h0c-.14,2,1.6,2.58,2.81,3.5,3.67,2.78,8.14,3.62,12.37,5,5.41.24,10.8.19,16-1.62q-4.92-7.06-9.83-14.12Z"/><path class="cls-22" d="M394.59,314.91c-2-1.26-3.69-3.32-6.48-2.76h0c-1.36,2.47-2.73,4.93-4.23,7.65l-7.5-10.11h0l-4.61-6.46h0l-1.73-1.8c-2.92-.22-5.09.64-5.54,3.92h0v.25l4.53,6.56h0q4.9,7.06,9.83,14.12c4.84-.82,9.16-2.94,13.34-5.38h0c.8-2,1.59-4,2.38-6Z"/><path class="cls-32" d="M413.57,258.72c2.22-4.5,4.36-9,7-14.53-5.91,2.11-10.85,3.25-15.3,5.77.1.36.2.73.29,1.09h0c1.85,2.44,3.66,4.91,5.57,7.31C411.74,259.13,412.51,260.89,413.57,258.72Z"/><path class="cls-25" d="M369,312.16h0l-4.53-6.56c-4.66,2.51-9.85,3.62-15.9,6.08,3-6.08,5.56-11.21,8.11-16.33h0c-1.51-2.3-2.84-4.76-5.18-6.38h0L341.42,310.5h0c-.08,4.48,2.49,7.09,6.26,8.85h0Z"/><path class="cls-35" d="M358.29,296.88a49,49,0,0,0,6.21,8.47c.45-3.28,2.62-4.14,5.54-3.92a67.65,67.65,0,0,0-7.14-9.76h0C362.66,294.55,360.05,295.33,358.29,296.88Z"/><path class="cls-32" d="M356.72,295.35h0c-2.55,5.12-5.09,10.25-8.11,16.33,6.05-2.46,11.24-3.57,15.9-6.08v-.25h0a49,49,0,0,1-6.21-8.47Z"/><rect class="cls-1" width="500" height="500"/></g></g></svg>