<svg xmlns="http://www.w3.org/2000/svg" viewBox="0 0 500 500"><defs><style>.cls-1{fill:#f7e782;}.cls-2{fill:#fecf64;}.cls-3{fill:#d98ac0;}.cls-4{fill:#bc95e3;}.cls-5{fill:#ebc2de;}.cls-6{fill:#dcc8f0;}.cls-7{fill:#dcc9f0;}.cls-8{fill:#ebc3de;}.cls-9{fill:#c959a5;}.cls-10{fill:none;}</style></defs><g id="Livello_2" data-name="Livello 2"><g id="Livello_1-2" data-name="Livello 1"><path class="cls-1" d="M434.75,151.83c16.49-12.83,24.41-29.8,25.72-50.58a69.3,69.3,0,0,0-11.89-43.94c-.64-1-1.53-1.79-1.42-3.09h0a25.91,25.91,0,0,0-2.35-2.55c-18.26-15.38-39.51-21.64-63-19C358.89,35.25,339.71,46.22,323.16,62c0,4.84,2.59,7.36,7.12,8.56,5.62,1.49,11.18,3.21,16.72,5,1.72.56,4.12,1.19,4,3.41s-2.44,2.75-4.19,3.31q-8.72,2.81-17.54,5.29a7.77,7.77,0,0,0-6.06,6.61c-1.56,7.83-3.48,15.59-5.09,23.41a30,30,0,0,1-2.74,7.79h0c0,11.84.08,23.69.07,35.53,0,9.79-3.54,14.8-12.74,18.05-13.21,4.66-26.37,9.44-39.67,13.82-6.16,2-9.81,5.69-11.42,12-6.46,25.27-19.77,46.64-38,65Q124.27,359.38,34.71,448.83c-1.24,1.24-2.54,2.42-3.69,3.75-5.13,5.95-4.77,13.19.89,18.72,1.17-1.3,2.28-2.66,3.51-3.89Q140.78,362,246.19,256.7a21.89,21.89,0,0,0,6.31-11.16c2.72-12.14,7.9-23,19.13-29.59,9.48-5.6,19.87-9.1,30.36-12.33,12.24-3.78,24.57-7.36,36.6-11.77,10.34-3.79,12.42-9.53,12.71-21.15.49-19.59.13-39.2.14-58.81A41.45,41.45,0,0,1,393,70.18c15.69,0,27.68,6.89,36.15,20.07a5.64,5.64,0,0,1,1.28,3.61h0c9,14.31,9.52,28.65-.05,42.91a63.69,63.69,0,0,1-5.11,5.93c3.29,3.51,4.66,8.24,7.63,11.94A4.1,4.1,0,0,1,434.75,151.83Z"/><path class="cls-2" d="M382.74,84.12c12.68-7.78,30-6.41,40.72,3.19h0c3.13,1.33,4.5,4.54,7,6.55h0a5.64,5.64,0,0,0-1.28-3.61c-8.47-13.18-20.46-20-36.15-20.07a41.45,41.45,0,0,0-41.6,41.71c0,19.61.35,39.22-.14,58.81-.29,11.62-2.37,17.36-12.71,21.15-12,4.41-24.36,8-36.6,11.77-10.49,3.23-20.88,6.73-30.36,12.33-11.23,6.62-16.41,17.45-19.13,29.59a21.89,21.89,0,0,1-6.31,11.16Q140.74,362,35.42,467.41c-1.23,1.23-2.34,2.59-3.51,3.89,6.48,5.5,13.24,4.88,20.06-1.94Q154.21,367.14,256.46,264.94a19.42,19.42,0,0,0,5.47-9.74c1.64-7.14,4-14,8.39-20.06,6.24-8.55,15.38-12.83,24.85-16.42,16-6.05,32.53-10.34,48.72-15.73,13.44-4.47,20.69-14.62,20.71-28.67l.12-53.09C363.57,105.39,368.83,92.64,382.74,84.12Z"/><path class="cls-3" d="M318.16,117.63c1.61-7.82,3.53-15.58,5.09-23.41a7.77,7.77,0,0,1,6.06-6.61q8.82-2.48,17.54-5.29C348.6,81.76,351,81.15,351,79s-2.32-2.85-4-3.41c-5.54-1.8-11.1-3.52-16.72-5-4.53-1.2-7.14-3.72-7.12-8.56-2.58-7.6-3.11-15.66-5.31-23.33-.64-2.24-.66-5.94-3.47-5.86s-2.79,3.65-3.34,6c-2,8.51-3.92,17-5.76,25.56A6.93,6.93,0,0,1,300,70.06c-5.74,1.67-11.44,3.46-17.13,5.29-2,.65-4.91,1.05-4.81,3.65s2.94,2.93,5,3.57c4.87,1.51,9.74,3.06,14.67,4.33,4.32,1.12,7.2,3.24,8.1,8q2.37,12.44,5.39,24.74c.57,2.31.65,5.5,4.25,5.82h0A30,30,0,0,0,318.16,117.63Z"/><path class="cls-4" d="M448.42,218.55c-4.86-1.53-9.67-3.35-14.64-4.44-6.32-1.38-9.55-4.64-10.66-11.29-1.38-8.3-2.68-16.7-5.49-24.71-.43-1.24-.93-2.81-2.35-2.91s-1.77,1.69-2.32,2.79a11.71,11.71,0,0,0-.94,2.9c-1.5,7-3.25,13.91-4.37,20.94s-4.21,11.26-11.63,12.5c-5,.84-9.76,2.91-14.59,4.55-1.19.4-2.6,1-2.7,2.57-.12,1.87,1.5,2.45,2.8,2.93,3.27,1.21,6.63,2.2,10,3.28,15.1,4.9,13.22.85,17.06,19,1.36,6.4,2.21,12.94,4.63,19.07.38,1,.68,2.51,2.19,2.3,1.06-.14,1.6-1.21,2-2.19a23.32,23.32,0,0,0,.91-2.91c2-8.8,4.12-17.58,6-26.41a7.08,7.08,0,0,1,5.54-5.95c6.16-1.78,12.24-3.83,18.36-5.78a5.6,5.6,0,0,0,3.9-3.2A5.48,5.48,0,0,0,448.42,218.55Z"/><path class="cls-2" d="M447.17,54.22h0c-.11,1.3.78,2.13,1.42,3.09a69.3,69.3,0,0,1,11.89,43.94c-1.31,20.78-9.23,37.75-25.72,50.58a4.1,4.1,0,0,0-1.81,2.81c4.26,9,8.27,9.86,15.55,3.25.32-.29.64-.6.95-.9,15.37-14.87,21.45-33.3,20.61-54.29C469.28,83.34,461.3,67.31,447.17,54.22Z"/><path class="cls-5" d="M256.68,136c1.9.06,3.8.11,5.69,0,2.27-.13,3.17.8,3.09,3.07-.11,3.21-.16,6.43,0,9.64.27,4.81,2.78,7.42,7.23,7.48a5,5,0,0,0,3.73-1.23c3.28-2.43,3-6.07,3-9.57,0-9,0-9,8.56-9.38,4.22-.19,6.91-2.56,7.1-6.26.15-2.76-3.11-6.36-6.39-6.83a19.36,19.36,0,0,0-4.81-.06c-3.31.36-4.9-.64-4.52-4.3a51.25,51.25,0,0,0,0-8.76c-.24-3.48-3.68-7.18-6.7-7-3.59.17-5.74,2.33-6.76,5.81-.65,2.18-.42,4.35-.43,6.52,0,7.46,0,7.46-7.59,7.73a11.26,11.26,0,0,0-2.18.16,6.93,6.93,0,0,0-5.47,7.35C250.59,134.32,253,135.9,256.68,136Z"/><path class="cls-6" d="M228.35,92c6.86.18,13.34-6.38,13.34-13.51.93-7-7.1-13.64-13.21-13.6s-13.73,6.56-13.23,13.7C215.73,85.53,221.46,91.84,228.35,92Z"/><path class="cls-6" d="M341.06,246.73c-6.86-.18-13.33,6.38-13.33,13.5-.94,7,7.07,13.62,13.18,13.61,6.92,0,13.2-6.55,13.16-13.71C354,253.18,347.94,246.9,341.06,246.73Z"/><path class="cls-7" d="M209,122a6.75,6.75,0,0,0,7.18-7c0-4.11-3-7-7.33-7a6.85,6.85,0,0,0-6.7,7.16A6.72,6.72,0,0,0,209,122Z"/><path class="cls-8" d="M449.08,187c-3.38-.07-7.26,4-7.18,7.5.09,3.73,3.2,6.54,7.21,6.5,4.58,0,6.8-2.17,6.83-6.57S453.23,187.09,449.08,187Z"/><path class="cls-8" d="M260.84,47.36A6.81,6.81,0,0,0,268,40.87c.09-3.51-3.74-7.55-7.12-7.52-4.11,0-6.91,3-6.91,7.34C254,44.65,256.74,47.33,260.84,47.36Z"/><path class="cls-8" d="M469,26.07a6.8,6.8,0,0,0-9.45,2.05c-1.83,3-.53,8.41,2.42,10.07,3.59,2,7.49.83,9.65-2.92C473.59,31.84,472.53,28.14,469,26.07Z"/><path class="cls-6" d="M321.72,289.74c-3.32-.1-7.18,3.91-7.16,7.43,0,3.95,2.84,6.58,7,6.57a6.77,6.77,0,0,0,7-7.16C328.52,293.59,324.72,289.82,321.72,289.74Z"/><circle class="cls-3" cx="400.97" cy="115.5" r="36.61"/><path class="cls-9" d="M421.72,85.34a36.61,36.61,0,0,1-50.91,50.92,36.61,36.61,0,1,0,50.91-50.92Z"/><rect class="cls-10" width="500" height="500"/></g></g></svg>