<svg xmlns="http://www.w3.org/2000/svg" xmlns:xlink="http://www.w3.org/1999/xlink" viewBox="0 0 500 500"><defs><style>.cls-1{fill:#fecdda;}.cls-2{fill:url(#Sfumatura_senza_nome_5);}.cls-3{fill:#fee6ec;}.cls-4{fill:none;}</style><linearGradient id="Sfumatura_senza_nome_5" x1="248.49" y1="138.17" x2="474.61" y2="138.17" gradientUnits="userSpaceOnUse"><stop offset="0" stop-color="#fa89ab"/><stop offset="1" stop-color="#d3afde"/></linearGradient></defs><g id="Livello_2" data-name="Livello 2"><g id="Livello_1-2" data-name="Livello 1"><path class="cls-1" d="M-13.39,304.32H374.22a0,0,0,0,1,0,0v40a0,0,0,0,1,0,0H-13.39a8.72,8.72,0,0,1-8.72-8.72V313a8.72,8.72,0,0,1,8.72-8.72Z" transform="translate(-177.77 219.47) rotate(-45)"/><path class="cls-2" d="M454.49,198.72,409.28,198a19.78,19.78,0,0,0-16.42,8.28L366.6,243.05a19.76,19.76,0,0,1-35-5.68l-13.25-43.23a19.71,19.71,0,0,0-12.94-13l-43.13-13.6a19.75,19.75,0,0,1-5.4-35l37-26a19.73,19.73,0,0,0,8.42-16.35L302,45A19.76,19.76,0,0,1,333.59,29l36.13,27.18a19.74,19.74,0,0,0,18.15,3L430.75,44.8A19.75,19.75,0,0,1,455.7,70L441,112.71a19.76,19.76,0,0,0,2.81,18.17l26.89,36.34A19.75,19.75,0,0,1,454.49,198.72Z"/><path class="cls-3" d="M374.25,287.9c4.48.31,5.76,3.34,5.76,6.67,0,10.41,4.84,18.39,12.2,25.09,6.1,5.56,13.8,7.5,21.72,8.51,3,.39,5.13,1.6,5,4.68s-2.19,4.34-5.51,4.73c-17.76,2.08-29.23,11.78-32.87,27.55-.61,2.64-.54,5.43-.95,8.12-.46,3-2.42,4.85-5.35,4.44s-4.1-2.57-4.31-5.6c-1-14.11-7.11-24.9-20.35-31.11A42.64,42.64,0,0,0,336,337.56c-3.14-.34-5.41-.89-5.47-4.57,0-3.28,1.66-4.41,4.77-4.83,7.39-1,14.56-2.48,20.77-7.32,8.9-7,13.21-16.07,13.89-27.06C370.15,290.53,371.6,288.75,374.25,287.9Z"/><path class="cls-3" d="M90.38,177.77c4.48.31,5.76,3.33,5.76,6.66,0,10.42,4.84,18.39,12.19,25.09,6.11,5.56,13.81,7.5,21.73,8.51,3,.39,5.13,1.6,5,4.68s-2.18,4.34-5.51,4.73C111.8,229.52,100.34,239.23,96.7,255c-.61,2.64-.54,5.43-1,8.12-.46,3-2.41,4.86-5.35,4.44S86.3,265,86.08,262c-1-14.11-7.1-24.9-20.35-31.11a42.64,42.64,0,0,0-13.62-3.42c-3.13-.33-5.4-.88-5.46-4.57-.06-3.28,1.65-4.41,4.76-4.82,7.4-1,14.57-2.49,20.77-7.33,8.91-7,13.21-16.07,13.9-27.06C86.28,180.39,87.73,178.61,90.38,177.77Z"/><path class="cls-1" d="M212.57,32.61c4.48.31,5.76,3.33,5.76,6.66,0,10.41,4.84,18.39,12.19,25.09,6.11,5.56,13.81,7.5,21.73,8.51,3,.39,5.12,1.6,5,4.68s-2.18,4.34-5.51,4.73c-17.76,2.08-29.22,11.79-32.86,27.55-.61,2.64-.54,5.43-1,8.12-.46,3-2.41,4.86-5.35,4.44s-4.09-2.57-4.31-5.6c-1-14.11-7.1-24.9-20.35-31.11a42.64,42.64,0,0,0-13.62-3.42c-3.13-.34-5.4-.88-5.46-4.57-.06-3.28,1.65-4.41,4.76-4.83,7.4-1,14.57-2.48,20.77-7.32,8.91-7,13.21-16.07,13.9-27.06C208.47,35.23,209.92,33.45,212.57,32.61Z"/><rect class="cls-4" width="500" height="500"/></g></g></svg>